<svg width="25" height="28" viewBox="0 0 25 28" xmlns="http://www.w3.org/2000/svg"><title>Paperclip</title><path d="M1.543 18.333a5.275 5.275 0 0 0 0 7.455 5.273 5.273 0 0 0 7.454 0l5.707-5.708 8.269-8.268a6.92 6.92 0 0 0-9.784-9.784L.842 14.373l.7.699.698.699L14.586 3.426a4.943 4.943 0 1 1 6.989 6.988l-6.23 6.23L7.6 24.39a3.296 3.296 0 0 1-4.66 0 3.299 3.299 0 0 1 0-4.66l5.707-5.706 8.12-8.12a1.65 1.65 0 0 1 2.329 0 1.646 1.646 0 0 1 0 2.33L6.898 20.432l.7.699.698.698L20.493 9.632a3.623 3.623 0 0 0 0-5.125 3.627 3.627 0 0 0-5.125 0l-8.12 8.12-5.705 5.706z" fill="#5B6C72" fill-rule="evenodd"/></svg>