<svg width="30" height="41" viewBox="0 0 30 41" xmlns="http://www.w3.org/2000/svg"><title>Marker fill</title><path d="M16.526 39.197c.109-.128.306-.364.58-.698a117 117 0 0 0 1.498-1.87 119.918 119.918 0 0 0 4.544-6.166 79.253 79.253 0 0 0 2.958-4.62c2.49-4.233 3.893-7.731 3.893-10.47C29.999 7.09 23.284.376 15 .376S.001 7.09.001 15.374c0 2.738 1.403 6.236 3.893 10.47a79.253 79.253 0 0 0 2.958 4.62 119.918 119.918 0 0 0 4.544 6.165 117 117 0 0 0 2.078 2.568L15 41l1.526-1.803z" fill="#3F95B5" fill-rule="evenodd"/></svg>