<svg width="24" height="16" viewBox="0 0 24 16" xmlns="http://www.w3.org/2000/svg"><title>Credit</title><path d="M0 1.062C0 .476.48 0 1.062 0h21.876C23.524 0 24 .479 24 1.062v13.876c0 .586-.48 1.062-1.062 1.062H1.062A1.064 1.064 0 0 1 0 14.938V1.062zm2.133 0v13.876c0-.593-.477-1.071-1.07-1.071h21.875c-.593 0-1.071.477-1.071 1.07V1.063c0 .593.477 1.071 1.07 1.071H1.063c.593 0 1.071-.477 1.071-1.07zm0 3.205h19.734v2.666H2.133V4.267zm1.6 7.2a.8.8 0 0 1 .793-.8h3.215a.8.8 0 0 1 0 1.6H4.526a.794.794 0 0 1-.793-.8z" fill="#FFF" fill-rule="evenodd"/></svg>