<svg width="23" height="23" viewBox="0 0 23 23" xmlns="http://www.w3.org/2000/svg"><title>Excited</title><path d="M11.5 21.16a9.66 9.66 0 1 0 0-19.32 9.66 9.66 0 0 0 0 19.32zm0 1.84C5.149 23 0 17.851 0 11.5S5.149 0 11.5 0 23 5.149 23 11.5 17.851 23 11.5 23zm-5.06-9.2a1.38 1.38 0 1 0 0-2.76 1.38 1.38 0 0 0 0 2.76zm10.12 0a1.38 1.38 0 1 0 0-2.76 1.38 1.38 0 0 0 0 2.76zm-6.67 4.642c.94.374 2.559.345 3.266 0 .708-.344 2.047-1.307 2.047-2.503 0-.509-2.119-.736-3.703-.736-1.584 0-3.703.234-3.703.736 0 1.049 1.154 2.13 2.094 2.503z" fill="#FFF" fill-rule="evenodd"/></svg>