<svg width="22" height="22" viewBox="0 0 22 22" xmlns="http://www.w3.org/2000/svg"><title>settings icn</title><path d="M20.09 9.335h-1.32c-.15 0-.333-.136-.388-.314l-.776-1.882a.44.44 0 0 1 .066-.457l.93-.931a.897.897 0 0 0 .267-.642.899.899 0 0 0-.266-.642L17.531 3.39a.935.935 0 0 0-1.282.001l-.931.934c-.1.1-.277.163-.497.05l-1.88-.773a.437.437 0 0 1-.276-.374v-1.32a.911.911 0 0 0-.91-.909H10.24a.91.91 0 0 0-.907.909v1.32c0 .146-.14.333-.315.386l-1.881.777c-.123.068-.358.034-.458-.065l-.934-.934a.933.933 0 0 0-1.282 0L3.392 4.467a.9.9 0 0 0-.268.643c0 .242.095.47.267.64l.932.934c.104.102.137.329.05.492l-.771 1.88a.449.449 0 0 1-.374.28H1.907c-.5 0-.907.408-.907.908v1.515c0 .5.406.908.907.908h1.32c.147 0 .332.139.387.313l.775 1.881a.43.43 0 0 1-.066.458l-.931.931a.902.902 0 0 0-.268.645c0 .244.096.472.267.64l1.074 1.077a.936.936 0 0 0 1.282-.004l.933-.934c.098-.098.274-.16.494-.046l1.879.77c.142.042.28.228.28.375v1.32c0 .5.407.908.908.908h1.513a.91.91 0 0 0 .911-.909v-1.32c0-.15.133-.332.31-.386l1.882-.775c.122-.068.362-.035.46.063l.932.935a.933.933 0 0 0 1.284 0l1.069-1.072a.898.898 0 0 0 .267-.642.9.9 0 0 0-.266-.644l-.932-.93c-.103-.103-.134-.331-.047-.495l.77-1.88a.44.44 0 0 1 .376-.279h1.32a.91.91 0 0 0 .907-.908v-1.515a.91.91 0 0 0-.908-.908zm.2 2.423a.205.205 0 0 1-.2.202h-1.32c-.46 0-.923.345-1.04.75l-.743 1.81c-.22.402-.14.971.183 1.299l.934.932a.2.2 0 0 1 0 .285l-1.071 1.072c-.101.101-.184.1-.284 0l-.933-.935a1.115 1.115 0 0 0-.787-.308c-.185 0-.362.043-.476.108l-1.813.747c-.438.13-.781.592-.781 1.052v1.32c0 .11-.094.202-.205.202h-1.513a.201.201 0 0 1-.201-.203v-1.32c0-.459-.346-.921-.753-1.039l-1.809-.742a1.065 1.065 0 0 0-.512-.125 1.11 1.11 0 0 0-.785.309l-.932.932a.216.216 0 0 1-.287.003l-1.073-1.074a.198.198 0 0 1-.058-.142c0-.031.007-.092.06-.142l.932-.932c.324-.325.406-.895.203-1.263l-.747-1.812a1.15 1.15 0 0 0-1.051-.784H1.907a.204.204 0 0 1-.2-.202v-1.515c0-.109.091-.202.2-.202h1.32c.459 0 .92-.344 1.04-.751l.741-1.81c.222-.403.14-.974-.186-1.298l-.933-.933a.197.197 0 0 1-.058-.14c0-.055.02-.105.06-.143l1.072-1.072a.21.21 0 0 1 .285 0l.933.933c.197.197.484.31.787.31.184 0 .36-.043.474-.108l1.81-.748c.442-.13.788-.593.788-1.052v-1.32c0-.111.09-.203.2-.203h1.514c.11 0 .205.093.205.203v1.32c0 .46.343.923.747 1.04l1.81.743c.396.216.981.132 1.301-.186l.93-.933a.213.213 0 0 1 .286-.002l1.071 1.075a.2.2 0 0 1 0 .284l-.931.932c-.325.324-.407.895-.202 1.262l.746 1.811c.13.441.593.786 1.053.786h1.32c.107 0 .2.093.2.202v1.515zm-9.292-3.523A2.768 2.768 0 0 0 8.233 11a2.768 2.768 0 0 0 2.765 2.765A2.767 2.767 0 0 0 13.762 11a2.768 2.768 0 0 0-2.764-2.765zm0 4.824A2.06 2.06 0 0 1 8.94 11a2.06 2.06 0 0 1 2.058-2.059 2.06 2.06 0 0 1 2.058 2.06 2.06 2.06 0 0 1-2.058 2.058z" stroke="#FFF" fill="#FFF" fill-rule="evenodd" opacity=".3"/></svg>