<svg width="24" height="22" viewBox="0 0 24 22" xmlns="http://www.w3.org/2000/svg"><title>Briefcase</title><path d="M21.818 9.273V6H2.182v3.273h8.182v-.001c0-.602.49-1.09 1.09-1.09h1.093c.601 0 1.09.483 1.09 1.09h8.181zm0 1.636v8.182H2.182v-8.182h8.182v.547c0 .606.488 1.09 1.09 1.09h1.093c.6 0 1.09-.488 1.09-1.09v-.547h8.181zm-4.363-7.09V1.09c0-.606-.487-1.09-1.086-1.09H7.63a1.09 1.09 0 0 0-1.086 1.09v2.728h-5.45C.49 3.818 0 4.307 0 4.91v15.27c0 .608.49 1.093 1.094 1.093h21.812c.604 0 1.094-.49 1.094-1.092V4.91a1.09 1.09 0 0 0-1.094-1.092h-5.451zM8.727 2.181h6.546v1.09H8.727v-1.09z" fill="#BFC3CD" fill-rule="evenodd"/></svg>