<svg width="15" height="14" viewBox="0 0 15 14" xmlns="http://www.w3.org/2000/svg"><title>Imported Layers</title><path d="M13.403 7.628H1.189c-.375 0-.679-.217-.679-.483 0-.267.304-.485.679-.485h12.214c.373 0 .678.218.678.485 0 .266-.305.483-.678.483zm0-5.805H1.189c-.375 0-.679-.216-.679-.483 0-.266.304-.484.679-.484h12.214c.373 0 .678.218.678.484 0 .267-.305.483-.678.483zM1.189 12.465h12.214c.373 0 .678.217.678.483 0 .268-.305.484-.678.484H1.189c-.375 0-.679-.216-.679-.484 0-.266.304-.483.679-.483z" fill="#595968" fill-rule="evenodd"/></svg>