<svg width="21" height="20" viewBox="0 0 21 20" xmlns="http://www.w3.org/2000/svg"><title>message icn</title><path d="M18.477 1l-16.132.001A1.38 1.38 0 0 0 1 2.385V13.29c0 .754.59 1.362 1.357 1.386h5.158l2.6 4.149a.373.373 0 0 0 .632 0l2.602-4.149h5.128c.764 0 1.387-.622 1.387-1.386V2.386c0-.764-.623-1.386-1.387-1.386zm.64 12.29a.64.64 0 0 1-.64.64h-5.304a.373.373 0 0 0-.123.025h-.001a.421.421 0 0 0-.043.019.366.366 0 0 0-.19.146l-2.385 3.804-2.384-3.804a.365.365 0 0 0-.196-.149.26.26 0 0 0-.036-.016h-.001a.369.369 0 0 0-.126-.026h-5.32a.644.644 0 0 1-.622-.639V2.385c0-.346.273-.628.61-.638h16.121a.64.64 0 0 1 .64.639V13.29zM6.694 7.166a.854.854 0 0 0 0 1.707.855.855 0 0 0 0-1.707zm-.106.853a.107.107 0 1 1 .214 0c0 .119-.215.119-.214 0zm3.815-.853a.855.855 0 0 0 0 1.707.854.854 0 0 0 0-1.707zm-.107.853a.106.106 0 0 1 .212 0c0 .121-.212.12-.212 0zm3.815-.853a.854.854 0 1 0 .003 1.708.854.854 0 0 0-.003-1.708zm-.106.853a.107.107 0 1 1 .214 0c0 .119-.214.12-.214 0z" stroke="#FFF" fill="#FFF" fill-rule="evenodd" opacity=".3"/></svg>