<svg width="25" height="21" viewBox="0 0 25 21" xmlns="http://www.w3.org/2000/svg"><title>Twitter</title><path d="M25 2.466a9.993 9.993 0 0 1-2.945.828A5.248 5.248 0 0 0 24.31.385a10.102 10.102 0 0 1-3.259 1.275A5.058 5.058 0 0 0 17.308 0c-2.83 0-5.127 2.355-5.127 5.26 0 .411.044.812.132 1.197C8.05 6.237 4.272 4.146 1.74.96a5.355 5.355 0 0 0-.694 2.647c0 1.824.906 3.434 2.282 4.377a5.036 5.036 0 0 1-2.324-.656v.065c0 2.549 1.768 4.675 4.116 5.157a4.89 4.89 0 0 1-1.352.185 4.95 4.95 0 0 1-.965-.094c.653 2.089 2.546 3.61 4.79 3.651A10.128 10.128 0 0 1 0 18.472a14.28 14.28 0 0 0 7.862 2.361c9.436 0 14.594-8.012 14.594-14.963 0-.229-.005-.457-.014-.682A10.527 10.527 0 0 0 25 2.466" fill="#00AAEC" fill-rule="evenodd"/></svg>